<svg width="42" height="42" viewBox="0 0 42 42" fill="none" xmlns="http://www.w3.org/2000/svg">
<path d="M42 21C42 9.40202 32.598 0 21 0C9.40202 0 0 9.40202 0 21C0 32.598 9.40202 42 21 42C32.598 42 42 32.598 42 21Z" fill="white"/>
<path fill-rule="evenodd" clip-rule="evenodd" d="M31.2773 21.2386C31.2773 20.494 31.2105 19.7781 31.0864 19.0908H21.1973V23.1524H26.8482C26.6048 24.4649 25.865 25.577 24.753 26.3215V28.9561H28.1464C30.1318 27.1281 31.2773 24.4363 31.2773 21.2386Z" fill="#4285F4"/>
<path fill-rule="evenodd" clip-rule="evenodd" d="M21.1977 31.5001C24.0327 31.5001 26.4095 30.5599 28.1468 28.9563L24.7533 26.3217C23.8131 26.9517 22.6104 27.324 21.1977 27.324C18.4629 27.324 16.1481 25.4769 15.3224 22.9951H11.8145V25.7156C13.5422 29.1472 17.0931 31.5001 21.1977 31.5001Z" fill="#34A853"/>
<path fill-rule="evenodd" clip-rule="evenodd" d="M15.322 22.9951C15.112 22.3651 14.9927 21.6922 14.9927 21.0001C14.9927 20.3081 15.112 19.6351 15.322 19.0051V16.2847H11.8141C11.1029 17.7022 10.6973 19.3058 10.6973 21.0001C10.6973 22.6945 11.1029 24.2981 11.8141 25.7156L15.322 22.9951Z" fill="#FBBC05"/>
<path fill-rule="evenodd" clip-rule="evenodd" d="M21.1977 14.6761C22.7392 14.6761 24.1233 15.2059 25.2115 16.2464L28.2231 13.2348C26.4047 11.5405 24.0279 10.5 21.1977 10.5C17.0931 10.5 13.5422 12.853 11.8145 16.2846L15.3224 19.005C16.1481 16.5232 18.4629 14.6761 21.1977 14.6761Z" fill="#EA4335"/>
</svg>
